<svg xmlns="http://www.w3.org/2000/svg" viewBox="0 0 181 62.82"><defs><style>.a{fill:#2ed684;}.b{fill:#0066b3;}.c{fill:#28b66a;}.d{fill:#2dc573;}</style></defs><g transform="translate(-40.518 -22.281)"><path class="a" d="M103.3,85.2c4.789,0,12.751,1.368,12.751,7.091,0,2.861-1.928,5.038-4.416,5.038-2.737,0-3.483-1.8-7.713-1.8-5.411,0-7.962,4.105-7.962,9.081s2.612,9.081,7.34,9.081c4.6,0,6.718-1.866,8.335-1.866,2.488,0,4.416,2.488,4.416,4.727,0,5.349-8.459,7.464-12.751,7.464-10.885,0-18.1-8.584-18.1-19.406S92.415,85.2,103.3,85.2Z" transform="translate(-44.683 -38.911)"/><path class="a" d="M147.969,108.052c0,2.3,1.742,5.971,8.583,5.971,5.287,0,8.521-3.359,11.009-3.359a4.451,4.451,0,0,1,4.478,4.6c0,5.225-8.77,8.646-16.856,8.646-11.569,0-18.784-8.583-18.784-19.406,0-10.325,7.775-19.406,18.784-19.406,10.574,0,17.416,8.895,17.416,18.224,0,3.794-1.8,4.665-5.225,4.665l-19.406.062Zm13.933-7.34a6.985,6.985,0,0,0-13.933,0Z" transform="translate(-64.037 -38.873)"/><path class="a" d="M209.469,108.052c0,2.3,1.742,5.971,8.584,5.971,5.287,0,8.521-3.359,11.009-3.359a4.451,4.451,0,0,1,4.478,4.6c0,5.225-8.77,8.646-16.856,8.646-11.569,0-18.784-8.583-18.784-19.406,0-10.325,7.775-19.406,18.784-19.406,10.574,0,17.416,8.895,17.416,18.224,0,3.794-1.8,4.665-5.225,4.665l-19.406.062Zm13.933-7.34a6.985,6.985,0,0,0-13.933,0Z" transform="translate(-87.284 -38.873)"/><path class="a" d="M354.2,104.606c0,10.823-7.215,19.406-18.1,19.406S318,115.429,318,104.606,325.215,85.2,336.1,85.2,354.2,93.784,354.2,104.606Zm-25.44,0c0,4.976,2.612,9.081,7.34,9.081s7.34-4.105,7.34-9.081-2.612-9.081-7.34-9.081S328.76,99.63,328.76,104.606Z" transform="translate(-132.683 -38.911)"/><g transform="translate(148.309 22.28)"><path class="b" d="M296.662,46.6h0l-.062.062C296.662,46.662,296.662,46.662,296.662,46.6Z" transform="translate(-272.902 -46.6)"/><path class="c" d="M306.509,61.8c-2.364,0-4.478.684-5.784,4.043L287.6,97.378l5.66,14.368a13.224,13.224,0,0,0,1-1.679L310.676,73.12c1.057-2.426,1.866-4.354,1.866-5.971C312.542,64.288,309.805,61.8,306.509,61.8Z" transform="translate(-269.5 -52.346)"/><path class="a" d="M276.6,106.577l-6.344-16.234c-1.306-3.359-3.359-4.043-5.785-4.043-3.3,0-5.971,2.488-5.971,5.349,0,1.679.746,3.608,1.866,5.971l9.765,21.77a6.994,6.994,0,0,0,.746,1.306l5.847-13.995Z" transform="translate(-258.5 -61.607)"/><path class="b" d="M296.662,142.2h0l-.062.062A.061.061,0,0,0,296.662,142.2Z" transform="translate(-272.902 -82.737)"/><path class="d" d="M286.6,125.469,284.047,119,278.2,132.995a6.64,6.64,0,0,0,5.909,3.048,8.58,8.58,0,0,0,2.3-.311h0a6.061,6.061,0,0,0,1.8-.871.061.061,0,0,0,.062-.062,4.353,4.353,0,0,0,.622-.5c.062-.062.124-.062.124-.124a6.809,6.809,0,0,0,.622-.684c0-.062.062-.062.062-.124a13.213,13.213,0,0,0,1-1.679l3.732-8.335a12.068,12.068,0,0,1-2.115,3.359A3.462,3.462,0,0,1,286.6,125.469Z" transform="translate(-265.947 -73.968)"/></g></g></svg>