<svg xmlns="http://www.w3.org/2000/svg" xmlns:xlink="http://www.w3.org/1999/xlink" viewBox="0 0 1121.929 1296.324"><defs><style>.a{opacity:0.2;}.b{fill:url(#a);}.c{fill:url(#b);}.d{fill:#292929;}</style><linearGradient id="a" x1="0.5" x2="0.5" y2="1" gradientUnits="objectBoundingBox"><stop offset="0" stop-color="#7039da"/><stop offset="1" stop-color="#b47bf7"/></linearGradient><linearGradient id="b" x1="0.5" x2="0.5" y2="1" gradientUnits="objectBoundingBox"><stop offset="0" stop-color="#2ed684"/><stop offset="1" stop-color="#63f5ae"/></linearGradient></defs><g class="a" transform="translate(-1341 -83)"><ellipse class="b" cx="145.965" cy="147.397" rx="145.965" ry="147.397" transform="translate(2171 83.001)"/><path class="c" d="M223.77,551.223,6.314,92.634C-14.2,49.536,17.771,0,66.106,0H479.3c47.245,0,79.214,47.463,60.883,90.343L344.445,548.931C322.3,600.867,247.992,602.286,223.77,551.223Z" transform="translate(1422.933 317.991) rotate(8)"/><path class="d" d="M252.484,151.894H40.133A40.124,40.124,0,0,1,0,111.761V40.133A40.124,40.124,0,0,1,40.133,0H252.484a40.124,40.124,0,0,1,40.133,40.133V111.8A40.17,40.17,0,0,1,252.484,151.894Z" transform="matrix(0.914, 0.407, -0.407, 0.914, 2012.781, 1121.545)"/></g></svg>