<svg xmlns="http://www.w3.org/2000/svg" viewBox="0 0 40 40"><defs><style>.a,.b{fill:none;}.a{stroke:#fff;stroke-miterlimit:10;stroke-width:2px;}.b{opacity:0;}</style></defs><g transform="translate(-14 -764)"><line class="a" y2="29.36" transform="translate(33.97 770)"/><line class="a" x2="9.85" transform="translate(29.04 799.81)"/><g transform="translate(14 764)"><path class="a" d="M10.26,22.91H4.31A1.81,1.81,0,0,1,2.5,21.1V15.14a1.81,1.81,0,0,1,1.81-1.81h5.96a1.81,1.81,0,0,1,1.81,1.81V21.1A1.818,1.818,0,0,1,10.26,22.91Z"/></g><g transform="translate(14 764)"><path class="a" d="M36.19,22.91H30.23a1.81,1.81,0,0,1-1.81-1.81V15.14a1.81,1.81,0,0,1,1.81-1.81h5.96A1.81,1.81,0,0,1,38,15.14V21.1A1.81,1.81,0,0,1,36.19,22.91Z"/></g><path class="a" d="M7,13V6H32.93v7.22" transform="translate(14 764)"/><rect class="b" width="40" height="40" transform="translate(14 764)"/></g></svg>