<svg xmlns="http://www.w3.org/2000/svg" viewBox="0 0 40 40"><defs><style>.a,.b{fill:none;}.b{stroke:#fff;stroke-miterlimit:10;stroke-width:2px;}</style></defs><g transform="translate(-14 -444)"><path class="a" d="M39,1V39H1V1H39m1-1H0V40H40V0Z" transform="translate(14 444)"/><g transform="translate(14 444)"><path class="b" d="M10.25,32H4.89a2.168,2.168,0,0,1-2.17-2.17V12.7a2.168,2.168,0,0,1,2.17-2.17H35.12a2.168,2.168,0,0,1,2.17,2.17V29.83A2.168,2.168,0,0,1,35.12,32H14.22"/><path class="b" d="M14.12,25.92H9a2.053,2.053,0,0,1-2.05-2.05V18.75A2.053,2.053,0,0,1,9,16.7h5.12a2.053,2.053,0,0,1,2.05,2.05v5.12A2.04,2.04,0,0,1,14.12,25.92Z"/><path class="b" d="M32.23,27.76H24.38a1.541,1.541,0,0,1-1.54-1.54h0a1.541,1.541,0,0,1,1.54-1.54h7.85a1.541,1.541,0,0,1,1.54,1.54h0A1.541,1.541,0,0,1,32.23,27.76Z"/></g></g></svg>