<svg xmlns="http://www.w3.org/2000/svg" viewBox="0 0 40 40"><defs><style>.a,.b{fill:none;}.a{stroke:#fff;stroke-miterlimit:10;stroke-width:2px;}.b{opacity:0;}</style></defs><g transform="translate(-14 -709)"><g transform="translate(14 709)"><path class="a" d="M25.25,4.9a8.3,8.3,0,1,1-2.04-1.23"/></g><g transform="translate(14 709)"><path class="a" d="M8.94,37H4.48a1.361,1.361,0,0,1-1.36-1.36V31.19a1.361,1.361,0,0,1,1.36-1.36H8.93a1.361,1.361,0,0,1,1.36,1.36v4.45A1.359,1.359,0,0,1,8.94,37Z"/><line class="a" y1="3.67" x2="3.68" transform="translate(7.39 23.71)"/><path class="a" d="M35.52,37H31.07a1.361,1.361,0,0,1-1.36-1.36V31.19a1.361,1.361,0,0,1,1.36-1.36h4.45a1.361,1.361,0,0,1,1.36,1.36v4.45A1.368,1.368,0,0,1,35.52,37Z"/><line class="a" x1="3.68" y1="3.67" transform="translate(28.88 23.71)"/><path class="a" d="M22.21,37H17.76a1.361,1.361,0,0,1-1.36-1.36V31.19a1.361,1.361,0,0,1,1.36-1.36h4.45a1.361,1.361,0,0,1,1.36,1.36v4.45A1.361,1.361,0,0,1,22.21,37Z"/><line class="a" y1="4.52" transform="translate(19.99 23.43)"/></g><rect class="b" width="40" height="40" transform="translate(14 709)"/></g></svg>