<svg xmlns="http://www.w3.org/2000/svg" viewBox="0 0 24.011 24.04"><defs><style>.a{opacity:0;}.b{fill:#292929;}.c{fill:none;stroke:#7039da;stroke-miterlimit:10;stroke-width:2px;}</style></defs><g transform="translate(0 0)"><g class="a"><path class="b" d="M23,1.04v22H1v-22H23m1-1H0v24H24V.04Z"/></g><path class="c" d="M14,8.76H2.93a1.3,1.3,0,0,0-1.3,1.3V20.34a1.3,1.3,0,0,0,1.3,1.3H21.07a1.3,1.3,0,0,0,1.3-1.3V10.06"/><path class="c" d="M9.47,17.99H6.4a1.229,1.229,0,0,1-1.23-1.23V13.69A1.229,1.229,0,0,1,6.4,12.46H9.47a1.229,1.229,0,0,1,1.23,1.23v3.07A1.229,1.229,0,0,1,9.47,17.99Z"/><line class="c" x2="6" transform="translate(14 18.04)"/><line class="c" x2="10.03" transform="translate(13.98 5.02)"/><line class="c" y2="10.04" transform="translate(18.99)"/></g></svg>