<svg xmlns="http://www.w3.org/2000/svg" viewBox="0 0 24 24"><defs><style>.a{opacity:0;}.b{fill:#292929;}.c{fill:none;stroke:#7039da;stroke-miterlimit:10;stroke-width:2px;}</style></defs><g transform="translate(-1141 -10130)"><g class="a" transform="translate(1141 10130)"><path class="b" d="M23,1V23H1V1H23m1-1H0V24H24V0Z"/></g><g transform="translate(1141 10130)"><path class="c" d="M14.77,10h1.14a2.97,2.97,0,0,1,2.97,2.97v7.02a2.97,2.97,0,0,1-2.97,2.97H8.09a2.97,2.97,0,0,1-2.97-2.97V12.97A2.97,2.97,0,0,1,8.09,10h.76"/></g><line class="c" y1="11" transform="translate(1153 10132)"/><path class="c" d="M7.67,6,12,1.67,16.33,6" transform="translate(1141 10130)"/></g></svg>