<svg xmlns="http://www.w3.org/2000/svg" viewBox="0 0 24 24.107"><defs><style>.a,.b{fill:none;}.a{stroke:#7039da;stroke-miterlimit:10;stroke-width:2px;}.b{opacity:0;}</style></defs><g transform="translate(-1644 -3151)"><g transform="translate(1645.668 3152.2)"><path class="a" d="M18.956,4.436a9.66,9.66,0,1,1-1.794-1.26" transform="translate(-2.78 -2)"/><line class="a" x1="5.238" y1="5.238" transform="translate(16.368 16.962)"/></g><g transform="translate(1652.958 3155.338)"><g transform="translate(0 1.212)"><path class="a" d="M19.322,10.1A2.493,2.493,0,0,0,17.45,9.25a2.568,2.568,0,0,0,0,5.136" transform="translate(-14.93 -9.25)"/><path class="a" d="M16.13,22.164a2.478,2.478,0,0,0,1.794.762,2.568,2.568,0,0,0,0-5.136" transform="translate(-15.41 -12.666)"/></g><line class="a" y2="1.212" transform="translate(2.514)"/><line class="a" y2="1.212" transform="translate(2.514 11.514)"/></g><rect class="b" width="24" height="24" transform="translate(1644 3151)"/></g></svg>