<svg xmlns="http://www.w3.org/2000/svg" viewBox="0 0 24 24"><defs><style>.a{opacity:0;}.b{fill:#292929;}.c{fill:none;stroke:#7039da;stroke-miterlimit:10;stroke-width:2px;}</style></defs><g transform="translate(-1111 -3201)"><g class="a" transform="translate(1111 3201)"><path class="b" d="M23,1V23H1V1H23m1-1H0V24H24V0Z"/></g><g transform="translate(1111 3201)"><path class="c" d="M22.37,8v9.3a1.3,1.3,0,0,1-1.3,1.3H2.93a1.3,1.3,0,0,1-1.3-1.3V7.02a1.3,1.3,0,0,1,1.3-1.3H19"/><path class="c" d="M9.47,14.95H6.4a1.229,1.229,0,0,1-1.23-1.23V10.65A1.229,1.229,0,0,1,6.4,9.42H9.47a1.229,1.229,0,0,1,1.23,1.23v3.07A1.229,1.229,0,0,1,9.47,14.95Z"/></g><line class="c" x2="6" transform="translate(1125 3216)"/></g></svg>